<?xml version="1.0" encoding="UTF-8"?>
<svg id="_レイヤー_2" data-name="レイヤー 2" xmlns="http://www.w3.org/2000/svg" xmlns:xlink="http://www.w3.org/1999/xlink" viewBox="0 0 224 96">
  <defs>
    <style>
      .cls-1 {
        fill: url(#_名称未設定グラデーション_19-3);
      }

      .cls-2 {
        fill: url(#_名称未設定グラデーション_19-4);
      }

      .cls-3 {
        fill: url(#_名称未設定グラデーション_6-5);
      }

      .cls-4 {
        fill: url(#_名称未設定グラデーション_6);
      }

      .cls-5 {
        fill: url(#_名称未設定グラデーション_6-4);
      }

      .cls-6 {
        fill: url(#_名称未設定グラデーション_6-3);
      }

      .cls-7 {
        fill: url(#_名称未設定グラデーション_19-2);
      }

      .cls-8 {
        fill: url(#_名称未設定グラデーション_19-5);
      }

      .cls-9 {
        fill: none;
      }

      .cls-10 {
        fill: url(#_名称未設定グラデーション_19-7);
      }

      .cls-11 {
        fill: url(#_名称未設定グラデーション_19);
      }

      .cls-12 {
        fill: url(#_名称未設定グラデーション_19-6);
      }

      .cls-13 {
        fill: url(#_名称未設定グラデーション_19-8);
      }

      .cls-14 {
        fill: url(#_名称未設定グラデーション_6-2);
      }
    </style>
    <linearGradient id="_名称未設定グラデーション_19" data-name="名称未設定グラデーション 19" x1="144.1" y1="30.62" x2="101.4" y2="30.62" gradientUnits="userSpaceOnUse">
      <stop offset="0" stop-color="#fff69a"/>
      <stop offset="1" stop-color="#d4cb11"/>
    </linearGradient>
    <linearGradient id="_名称未設定グラデーション_6" data-name="名称未設定グラデーション 6" x1="79.9" y1="41.16" x2="109.91" y2="41.16" gradientUnits="userSpaceOnUse">
      <stop offset="0" stop-color="#ffb3f3"/>
      <stop offset="1" stop-color="#ff4ce4"/>
    </linearGradient>
    <linearGradient id="_名称未設定グラデーション_19-2" data-name="名称未設定グラデーション 19" x1="91.62" y1="69.76" x2="91.62" y2="95.16" xlink:href="#_名称未設定グラデーション_19"/>
    <linearGradient id="_名称未設定グラデーション_19-3" data-name="名称未設定グラデーション 19" x1="112.91" y1="76.12" x2="112.91" y2="95.82" xlink:href="#_名称未設定グラデーション_19"/>
    <linearGradient id="_名称未設定グラデーション_19-4" data-name="名称未設定グラデーション 19" x1="129.78" y1="71.52" x2="129.78" y2="96" xlink:href="#_名称未設定グラデーション_19"/>
    <linearGradient id="_名称未設定グラデーション_19-5" data-name="名称未設定グラデーション 19" x1="153.1" y1="76.79" x2="153.1" y2="95.16" xlink:href="#_名称未設定グラデーション_19"/>
    <linearGradient id="_名称未設定グラデーション_19-6" data-name="名称未設定グラデーション 19" x1="177.28" y1="76.12" x2="177.28" y2="95.82" xlink:href="#_名称未設定グラデーション_19"/>
    <linearGradient id="_名称未設定グラデーション_19-7" data-name="名称未設定グラデーション 19" x1="194.83" y1="76.79" x2="194.83" y2="95.16" xlink:href="#_名称未設定グラデーション_19"/>
    <linearGradient id="_名称未設定グラデーション_19-8" data-name="名称未設定グラデーション 19" x1="212.87" y1="69.76" x2="212.87" y2="95.16" xlink:href="#_名称未設定グラデーション_19"/>
    <linearGradient id="_名称未設定グラデーション_6-2" data-name="名称未設定グラデーション 6" x1="47.85" y1="95.91" x2="47.85" y2="76.21" xlink:href="#_名称未設定グラデーション_6"/>
    <linearGradient id="_名称未設定グラデーション_6-3" data-name="名称未設定グラデーション 6" x1="66.85" y1="95.91" x2="66.85" y2="76.21" xlink:href="#_名称未設定グラデーション_6"/>
    <linearGradient id="_名称未設定グラデーション_6-4" data-name="名称未設定グラデーション 6" x1="9.8" y1="95.91" x2="9.8" y2="69.84" xlink:href="#_名称未設定グラデーション_6"/>
    <linearGradient id="_名称未設定グラデーション_6-5" data-name="名称未設定グラデーション 6" x1="28.78" y1="95.91" x2="28.78" y2="76.21" xlink:href="#_名称未設定グラデーション_6"/>
  </defs>
  <g id="layer">
    <g>
      <g>
        <g>
          <path class="cls-11" d="m142.59,27.28c1.93,1.13,1.61,2.69,1.19,3.82-.42,1.14-7.41,25.29-7.41,25.29,0,0,2.99-.13,4.07,1.48,1.91,2.84-1.6,3.18-1.6,3.18,0,0-13.47.3-14.13.14-.67-.15-1.15-1.25-.91-2.45.21-1.01,5.19-17.04,5.51-18.12.31-1.09-.04-1.5-1.06-1.9-.53-.21-5.21,1.9-5.82,2.12-1.14.41-3.77,1.81-4.15,2.96-.56,1.7-.86,2.81-.86,2.81l-3.62,12.24c-.52,1.71-2.33,2.69-4.05,2.17l-6.05-1.83c-1.71-.53-2.69-2.33-2.17-4.05l11.96-39.51c.52-1.72,2.33-2.69,4.04-2.17l6.05,1.83c.63.19,1.82.92,2.02,2.17.16,2.54-.71,5.85-1.04,6.94,0,0,16.08,1.78,18.01,2.9Zm-19.4-12.47c4.09,0,7.41-3.32,7.41-7.41s-3.32-7.41-7.41-7.41-7.41,3.32-7.41,7.41,3.32,7.41,7.41,7.41Z"/>
          <path class="cls-4" d="m99.63,59.48c-.43,1.42-2.17,2.13-3.88,1.61l-5.26-1.6c-.61-.19-10.31-2.82-10.58-3.47-.26-.64,2.75-8.02,3-8.67.25-.65,2.74.25,2.52.93-.22.68-.57,1.85-.57,1.85l7.58,2.58,6.5-21.29c.43-1.41,2.17-2.13,3.88-1.6l2.26.66c1.71.52,2.76,2.09,2.33,3.51l-7.78,25.48Zm5.7-38.43c-2.53,0-4.58,2.09-4.58,4.68s2.05,4.67,4.58,4.67,4.58-2.09,4.58-4.67-2.05-4.68-4.58-4.68Z"/>
        </g>
        <g>
          <g>
            <path class="cls-7" d="m95.35,95.16l-7.84-13.26v11.93c0,.47.05.92.14,1.34h-7.18c.09-.33.14-.77.14-1.34v-24.06h7.39l7.74,12.98v-11.61c0-.54-.05-1-.14-1.37h7.18c-.09.45-.14.9-.14,1.37v24.03h-7.28Z"/>
            <path class="cls-1" d="m121.91,88.08h-11.05c.19,1.36.87,2.04,2.04,2.04s1.69-.46,1.69-1.37h7.46c-1.34,4.72-4.37,7.07-9.11,7.07-2.82,0-5.07-.95-6.76-2.85-1.62-1.81-2.43-4.13-2.43-6.96s.81-5.17,2.43-7c1.67-1.92,3.91-2.89,6.72-2.89s5.03.96,6.72,2.89c1.62,1.83,2.43,4.16,2.43,7,0,.54-.05,1.23-.14,2.08Zm-8.97-6.3c-.91,0-1.56.53-1.94,1.58h3.76c-.35-1.06-.96-1.58-1.83-1.58Z"/>
            <path class="cls-2" d="m133.07,96c-2.16,0-3.88-.5-5.17-1.51-1.41-1.1-2.11-2.7-2.11-4.79v-7.32h-1.37c-.45,0-.9.05-1.37.14v-5.94h2.75v-3.76c0-.49-.05-.93-.14-1.3h6.58c-.09.38-.14.81-.14,1.3v3.76h4.36v5.94c-.35-.09-.77-.14-1.26-.14h-3.1v5.94c0,.63.42.96,1.27.99.94.02,1.99-.22,3.17-.74v7c-1.19.28-2.35.42-3.45.42Z"/>
            <path class="cls-8" d="m161.99,95.16h-6.4l-2.67-8.3-3.02,8.3h-6.44l-5.95-18.36h7c-.05.44.02.95.21,1.51l2.25,6.83,2.89-8.34h6.51l2.71,8.34,2.36-6.83c.14-.4.26-.9.35-1.51h6.93l-6.72,18.36Z"/>
            <path class="cls-12" d="m177.31,95.82c-2.86,0-5.16-.93-6.9-2.78-1.71-1.85-2.57-4.21-2.57-7.07s.85-5.25,2.57-7.11c1.71-1.83,4-2.74,6.86-2.74s5.15.93,6.86,2.78c1.71,1.83,2.57,4.19,2.57,7.07s-.86,5.22-2.57,7.07c-1.69,1.85-3.97,2.78-6.83,2.78Zm0-14.07c-1.5,0-2.25,1.41-2.25,4.22s.74,4.19,2.22,4.19,2.22-1.39,2.22-4.19-.73-4.22-2.18-4.22Z"/>
            <path class="cls-10" d="m201.97,83.9c-.87-.21-1.69-.32-2.46-.32-2.18,0-3.96.86-5.35,2.57v7.67c0,.49.05.94.14,1.34h-6.61c.09-.42.14-.87.14-1.34v-15.69c0-.45-.05-.89-.14-1.34h6.58c-.07.49-.11.94-.11,1.34v1.34c1.73-1.76,3.96-2.64,6.68-2.64.37,0,.75.01,1.13.03v7.04Z"/>
            <path class="cls-13" d="m215.13,83.76l7.14,11.4h-8.37c-.07-.33-.24-.82-.49-1.48l-2.92-5.52-1.16,1.16v4.5c0,.57.05,1.01.14,1.34h-6.51c.09-.37.14-.82.14-1.34v-22.69c0-.47-.05-.93-.14-1.37h6.51c-.09.49-.14.95-.14,1.37v9.82l3.27-3.31c.35-.33.61-.7.77-1.12h9.39l-7.64,7.24Z"/>
          </g>
          <g>
            <g>
              <path class="cls-14" d="m47.89,95.91c-2.32,0-4.27-.68-5.84-2.04-1.57-1.38-2.41-3.23-2.53-5.52h6.97c-.02.16-.03.3-.03.42,0,.82.44,1.23,1.34,1.23.7,0,1.06-.16,1.06-.49,0-.26-.45-.6-1.34-1.02l-2.78-1.26c-2.93-1.34-4.4-3.03-4.4-5.07,0-1.85.77-3.33,2.32-4.43,1.41-1.01,3.07-1.51,5-1.51,5.09,0,7.9,2.39,8.44,7.18h-6.61c.14-1.06-.27-1.58-1.23-1.58-.73,0-1.07.21-1.02.63.05.16.43.42,1.16.77.75.31,1.89.79,3.41,1.44,2.93,1.29,4.4,3.11,4.4,5.45,0,1.92-.94,3.42-2.81,4.5-1.57.87-3.4,1.3-5.49,1.3Z"/>
              <path class="cls-6" d="m66.88,95.91c-2.86,0-5.16-.93-6.89-2.78-1.71-1.85-2.57-4.21-2.57-7.07s.86-5.25,2.57-7.11c1.71-1.83,4-2.74,6.86-2.74s5.15.93,6.86,2.78c1.71,1.83,2.57,4.19,2.57,7.07s-.86,5.22-2.57,7.07c-1.69,1.85-3.96,2.78-6.83,2.78Zm0-14.07c-1.5,0-2.25,1.4-2.25,4.22s.74,4.19,2.21,4.19,2.22-1.39,2.22-4.19-.73-4.22-2.18-4.22Z"/>
            </g>
            <path class="cls-5" d="m9.82,95.91c-2.46,0-4.48-.83-6.05-2.5-1.57-1.62-2.42-3.68-2.53-6.19h7.49c-.05.37-.07.63-.07.77,0,1.08.46,1.62,1.37,1.62.4,0,.74-.15,1.02-.46.26-.33.39-.68.39-1.06v-16.89c0-.42-.05-.88-.14-1.37h7.07c-.1.52-.14.97-.14,1.37v16.15c0,2.72-.73,4.83-2.18,6.33-1.43,1.48-3.51,2.22-6.23,2.22Z"/>
            <path class="cls-3" d="m28.81,95.91c-2.86,0-5.16-.93-6.89-2.78-1.71-1.85-2.57-4.21-2.57-7.07s.86-5.25,2.57-7.11c1.71-1.83,4-2.74,6.86-2.74s5.15.93,6.86,2.78c1.71,1.83,2.57,4.19,2.57,7.07s-.86,5.22-2.57,7.07c-1.69,1.85-3.96,2.78-6.83,2.78Zm0-14.07c-1.5,0-2.25,1.4-2.25,4.22s.74,4.19,2.21,4.19,2.22-1.39,2.22-4.19-.73-4.22-2.18-4.22Z"/>
          </g>
        </g>
      </g>
      <rect class="cls-9" width="224" height="96"/>
    </g>
  </g>
</svg>